<svg width="74" height="74" viewBox="0 0 74 74" fill="none" xmlns="http://www.w3.org/2000/svg">
<path d="M15.46 17.034L14.6367 17.8325L9.4043 12.3227L10.3073 11.471L14.1054 15.4902L12.9899 8.91571L13.8133 8.11719L19.0457 13.627L18.1426 14.4787L14.3445 10.4595L15.46 17.034Z" fill="#201E33"/>
<path d="M20.0239 12.9104L16.332 6.28265L17.421 5.67045L18.988 8.46527L22.0424 6.73514L20.4754 3.94032L21.5644 3.32812L25.2828 9.95585L24.1938 10.5681L22.5736 7.69337L19.5192 9.4235L21.1128 12.2982L20.0239 12.9104Z" fill="#201E33"/>
<path d="M26.7427 8.35768C25.9459 7.85196 25.3881 7.02682 25.096 5.9089C24.8038 4.79097 24.8835 3.80614 25.335 2.95439C25.7866 2.10264 26.5567 1.51705 27.6191 1.25088C28.4424 1.03794 29.2127 1.06456 29.9032 1.38397C30.5937 1.70337 31.0983 2.23573 31.4171 2.95439L30.1688 3.30041C29.6642 2.42204 28.8143 2.0494 27.8582 2.31557C27.1676 2.50189 26.6895 2.90116 26.4239 3.48673C26.1583 4.09893 26.1318 4.79098 26.3443 5.58949C26.5568 6.38801 26.9286 6.97359 27.4598 7.34623C27.991 7.74549 28.6018 7.82534 29.2658 7.63902C30.2751 7.37284 30.8327 6.62757 30.8062 5.61611L32.0545 5.27008C32.1342 6.0686 31.9748 6.78727 31.5233 7.39946C31.0718 8.01166 30.4344 8.43754 29.5845 8.67709C28.469 8.96988 27.5395 8.86341 26.7427 8.35768Z" fill="#201E33"/>
<path d="M32.7738 1.33087L32.7207 0.212935L38.6434 0L38.67 1.11793L36.3593 1.19778L36.5718 7.66578L35.35 7.71902L35.111 1.25102L32.7738 1.33087Z" fill="#201E33"/>
<path d="M40.7709 7.85134L39.6289 7.63841L41.0631 0.185547L42.2849 0.425101L41.2225 5.85504L45.9237 1.11715L47.0392 1.35671L45.6049 8.78295L44.3831 8.57001L45.4456 3.11346L40.7709 7.85134Z" fill="#201E33"/>
<path d="M48.8933 3.11303L49.3448 2.10156L54.7364 4.49712L54.2849 5.50859L52.1601 4.57698L49.5307 10.486L48.3887 9.9803L51.0446 4.04463L48.8933 3.11303Z" fill="#201E33"/>
<path d="M52.7734 12.1638L53.4374 11.2855L53.9952 11.7113C54.2608 11.8977 54.4733 12.0041 54.6326 12.0308C54.792 12.0574 55.0044 12.0041 55.27 11.8444L55.695 11.6049L56.6246 5.53613L57.7401 6.36127L56.9964 10.9394L60.9007 8.75683L61.9366 9.55534L55.9606 12.7494C55.456 13.0422 55.0044 13.1753 54.6591 13.1487C54.3139 13.1487 53.9421 13.0156 53.6233 12.7494L52.7734 12.1638Z" fill="#201E33"/>
<path d="M62.5739 11.7633L63.4238 11.0713L67.2218 15.5962L66.3719 16.3149L64.858 14.5049L59.9179 18.6839L59.1211 17.7256L64.0612 13.5467L62.5739 11.7633Z" fill="#201E33"/>
<path d="M65.8422 31.4783L65.6562 30.254L73.1196 29.0029L73.8633 33.5013L72.7743 33.6876L72.2166 30.4136L65.8422 31.4783Z" fill="#201E33"/>
<path d="M66.4297 35.4951L73.9993 35.7081L73.8665 40.6589L72.7775 40.6056L72.8572 36.9058L70.759 36.8526L70.6793 39.9136L69.6169 39.887L69.6966 36.826L67.4921 36.7727L67.4124 40.6056L66.2969 40.579L66.4297 35.4951Z" fill="#201E33"/>
<path d="M66.2186 41.374L73.5758 43.2372L73.2571 44.435L70.1761 43.6631L69.3262 47.0701L72.4072 47.842L72.115 49.0664L64.7578 47.2032L65.0765 46.0054L68.2637 46.8039L69.1137 43.3969L65.9265 42.5984L66.2186 41.374Z" fill="#201E33"/>
<path d="M63.7193 49.4653L64.3036 48.374L70.9966 51.9408L68.1548 57.211L61.4883 53.6176L62.0726 52.5263L67.783 55.5873L69.4296 52.5263L63.7193 49.4653Z" fill="#201E33"/>
<path d="M61.1991 54.2002L62.0224 54.9455L61.8896 55.0786C61.7037 55.2915 61.624 55.5044 61.624 55.6908C61.624 55.9037 61.7303 56.1699 61.9959 56.5159C62.235 56.8353 62.6333 57.2612 63.1645 57.7669L65.9268 60.2956L62.2349 64.3414L56.6309 59.2309L57.4808 58.2993L62.2615 62.6645L64.3066 60.4287L62.288 58.5921C60.9069 57.3144 60.3227 56.3828 60.4023 55.6109C60.4289 55.2117 60.6414 54.839 60.9866 54.4664L61.1991 54.2002Z" fill="#201E33"/>
<path d="M55.1109 60.3984L56.1733 59.6797L57.9794 67.5851L56.7311 68.4102L50.1973 63.6457L51.3128 62.9004L52.933 64.0716L55.5093 62.3414L55.1109 60.3984ZM56.678 66.8398L55.8546 63.4061L53.8361 64.737L56.678 66.8398Z" fill="#201E33"/>
<path d="M49.6416 63.832L52.1648 70.992L50.9962 71.3913L49.9338 68.3836L46.6138 69.5547L47.6762 72.5625L46.5076 72.9883L43.9844 65.8283L45.153 65.4291L46.242 68.5166L49.5619 67.3455L48.473 64.2579L49.6416 63.832Z" fill="#201E33"/>
<path d="M42.099 66.1741L43.3739 66.041L41.2757 73.8665L39.7883 73.9996L36.2559 66.7331L37.5838 66.6L38.4603 68.3833L41.5413 68.0905L42.099 66.1741ZM40.4523 72.5889L41.3288 69.1818L38.9384 69.4214L40.4523 72.5889Z" fill="#201E33"/>
<path d="M27.1704 65.1095L23.7176 71.8702L22.2834 71.125L22.8411 64.7102L18.0073 68.9157L16.5996 68.1971L20.0524 61.4629L21.1413 61.9952L18.5916 66.9727L23.1599 63.0333L24.0895 63.5124L23.5583 69.5279L26.108 64.5771L27.1704 65.1095Z" fill="#201E33"/>
<path d="M11.4703 58.6173C11.9749 58.0849 12.5326 57.7123 13.1701 57.4993C13.8075 57.2864 14.4185 57.2598 15.0559 57.3929C15.6934 57.526 16.2777 57.8454 16.7823 58.3511C17.287 58.8302 17.6322 59.4158 17.8182 60.028C18.0041 60.6668 18.0041 61.279 17.8182 61.9178C17.6322 62.5566 17.287 63.1422 16.7823 63.6746C16.2777 64.2069 15.7199 64.5795 15.0824 64.7925C14.445 65.0054 13.8341 65.032 13.1967 64.899C12.5592 64.7659 11.9749 64.4198 11.4703 63.9407C10.9656 63.4616 10.5937 62.9027 10.4344 62.2638C10.2484 61.625 10.2484 61.0128 10.4344 60.374C10.6468 59.7086 10.9656 59.1496 11.4703 58.6173ZM15.8792 62.7962C16.437 62.2106 16.7292 61.5718 16.7557 60.9064C16.7823 60.2143 16.5433 59.6287 16.0386 59.1496C15.534 58.6705 14.9231 58.4576 14.2591 58.5108C13.5951 58.564 12.9576 58.9101 12.4264 59.4956C11.8686 60.0812 11.5764 60.72 11.5499 61.3855C11.5233 62.0509 11.7624 62.6631 12.2671 63.1422C12.7717 63.6213 13.3826 63.8343 14.0466 63.781C14.7106 63.7012 15.3215 63.3818 15.8792 62.7962Z" fill="#201E33"/>
<path d="M12.3752 55.0533C12.1096 55.9583 11.4987 56.7302 10.4894 57.3424C9.50673 57.9546 8.52404 58.1409 7.59445 57.9546C6.66486 57.7683 5.89459 57.1827 5.31028 56.2245C4.85876 55.4792 4.67287 54.7605 4.80567 53.9886C4.91191 53.2433 5.28377 52.6045 5.89465 52.0722L6.55864 53.1635C5.86809 53.8821 5.76182 54.8138 6.26646 55.6655C6.6383 56.2777 7.14295 56.6237 7.80694 56.7036C8.47094 56.7834 9.13489 56.6237 9.82545 56.1979C10.516 55.772 10.9676 55.2396 11.2066 54.6274C11.4191 54.0152 11.3394 53.403 10.9941 52.7908C10.4629 51.9125 9.58641 51.5664 8.63026 51.8858L7.96626 50.7945C8.70994 50.4751 9.42706 50.4485 10.1707 50.7147C10.8879 50.9809 11.4722 51.4866 11.9502 52.2319C12.4814 53.2167 12.6408 54.1217 12.3752 55.0533Z" fill="#201E33"/>
<path d="M9.48123 47.5228L9.85304 48.7206L2.62873 50.9831L2.25685 49.7853L5.31125 48.8271L4.93944 47.6293L1.19445 46.3783L0.769531 45.0208L5.04565 46.4848L7.94074 42.5986L8.39224 44.036L5.97526 47.2833L6.34713 48.5077L9.48123 47.5228Z" fill="#201E33"/>
<path d="M7.91341 41.9357L0.370361 42.4947L0.157867 39.7265C0.104747 38.9014 0.237548 38.2359 0.556269 37.7568C0.874991 37.2777 1.35309 37.0116 1.96397 36.9583C2.84045 36.9051 3.42474 37.331 3.7169 38.1295C3.79658 37.1446 4.32781 36.4792 5.33709 36.426C6.02765 36.3727 6.55884 36.5857 6.98381 37.0382C7.40877 37.4907 7.6478 38.1827 7.70092 39.0877L7.91341 41.9357ZM1.32649 41.1638L3.50447 41.0041L3.39819 39.4337C3.34507 38.582 2.89355 38.1295 2.20298 38.1827C1.53898 38.2359 1.16715 38.7417 1.22027 39.5934L1.32649 41.1638ZM4.5137 40.9243L6.7979 40.7646L6.69168 39.1143C6.612 38.1295 6.16045 37.6237 5.46989 37.677C4.72621 37.7302 4.35439 38.3158 4.43407 39.274L4.5137 40.9243Z" fill="#201E33"/>
<path d="M7.43674 35.3387L0 33.9013L0.239077 32.6769L2.94816 33.2093L3.26687 31.559C3.42622 30.7871 3.74496 30.2015 4.27615 29.8023C4.80735 29.403 5.4182 29.2966 6.10875 29.4296C6.7993 29.5627 7.33054 29.9088 7.67582 30.4677C8.02109 31.0267 8.12729 31.6921 7.96793 32.464L7.43674 35.3387ZM8.89753 27.7528L8.65851 28.9772L1.22178 27.5398L1.46079 26.3154L8.89753 27.7528ZM4.03714 33.3956L6.63995 33.9013L6.93213 32.3309C7.01181 31.905 6.95866 31.5324 6.77274 31.213C6.58683 30.9202 6.29472 30.7339 5.89632 30.654C5.49793 30.5742 5.15261 30.654 4.86045 30.867C4.5683 31.0799 4.40898 31.3993 4.30274 31.8518L4.03714 33.3956Z" fill="#201E33"/>
<path d="M49.3496 25.1455H48.0469V49.0659H49.3496V25.1455Z" fill="#201E33"/>
<path d="M37.666 25.1455H36.3633V49.0659H37.666V25.1455Z" fill="#201E33"/>
<path d="M25.9533 25.1455H24.6504V49.0659H25.9533V25.1455Z" fill="#201E33"/>
</svg>
