<svg width="26" height="24" viewBox="0 0 26 24" fill="none" xmlns="http://www.w3.org/2000/svg">
<path d="M6.37086 0L8.69536 1.71429C8.06402 2.51429 7.40397 3.65714 6.71523 5.14286C6.02649 6.62857 5.45254 8.28572 4.99338 10.1143C4.59161 11.8857 4.50552 13.6286 4.7351 15.3429C5.48124 15 6.19868 14.8286 6.88742 14.8286C7.97793 14.8286 8.89625 15.2286 9.64238 16.0286C10.4459 16.8286 10.8477 17.8286 10.8477 19.0286C10.8477 20.6286 10.3598 21.8571 9.3841 22.7143C8.46578 23.5714 7.37528 24 6.11258 24C4.10375 24 2.58278 23.2571 1.54967 21.7714C0.516556 20.2286 0 18.3714 0 16.2C0 14.7714 0.258278 13.0286 0.774834 10.9714C1.34879 8.91429 2.09492 6.91429 3.01324 4.97143C3.98896 2.97143 5.10817 1.31429 6.37086 0ZM21.5232 0L23.8477 1.71429C23.2163 2.51429 22.5563 3.65714 21.8675 5.14286C21.1788 6.62857 20.6049 8.28572 20.1457 10.1143C19.7439 11.8857 19.6578 13.6286 19.8874 15.3429C20.6336 15 21.351 14.8286 22.0397 14.8286C23.1302 14.8286 24.0486 15.2286 24.7947 16.0286C25.5982 16.8286 26 17.8286 26 19.0286C26 20.6286 25.5121 21.8571 24.5364 22.7143C23.6181 23.5714 22.5276 24 21.2649 24C19.2561 24 17.7351 23.2571 16.702 21.7714C15.6689 20.2286 15.1523 18.3714 15.1523 16.2C15.1523 14.7714 15.4106 13.0286 15.9272 10.9714C16.5011 8.91429 17.2472 6.91429 18.1656 4.97143C19.1413 2.97143 20.2605 1.31429 21.5232 0Z" fill="#201E33"/>
</svg>
