<svg width="26" height="24" viewBox="0 0 26 24" fill="none" xmlns="http://www.w3.org/2000/svg">
<path d="M19.6291 24L17.3046 22.2857C17.936 21.4857 18.596 20.3429 19.2848 18.8571C19.9735 17.3714 20.5475 15.7143 21.0066 13.8857C21.4084 12.1143 21.4945 10.3714 21.2649 8.65714C20.5188 9 19.8013 9.17143 19.1126 9.17143C18.0221 9.17143 17.1038 8.77143 16.3576 7.97143C15.5541 7.17143 15.1523 6.17143 15.1523 4.97143C15.1523 3.37143 15.6402 2.14286 16.6159 1.28572C17.5342 0.428572 18.6247 0 19.8874 0C21.8962 0 23.4172 0.742857 24.4503 2.22857C25.4834 3.77143 26 5.62857 26 7.8C26 9.22857 25.7417 10.9714 25.2252 13.0286C24.6512 15.0857 23.9051 17.0857 22.9868 19.0286C22.011 21.0286 20.8918 22.6857 19.6291 24ZM4.47682 24L2.15232 22.2857C2.78366 21.4857 3.44371 20.3429 4.13245 18.8571C4.82119 17.3714 5.39514 15.7143 5.85431 13.8857C6.25607 12.1143 6.34216 10.3714 6.11258 8.65714C5.36645 9 4.64901 9.17143 3.96027 9.17143C2.86976 9.17143 1.95144 8.77143 1.2053 7.97143C0.401766 7.17143 0 6.17143 0 4.97143C0 3.37143 0.48786 2.14286 1.46358 1.28572C2.3819 0.428572 3.47241 0 4.7351 0C6.74393 0 8.2649 0.742857 9.29801 2.22857C10.3311 3.77143 10.8477 5.62857 10.8477 7.8C10.8477 9.22857 10.5894 10.9714 10.0728 13.0286C9.4989 15.0857 8.75276 17.0857 7.83444 19.0286C6.85872 21.0286 5.73952 22.6857 4.47682 24Z" fill="#201E33"/>
</svg>
